# xmcd
#
# Track frame offsets: 
#        150
#        12893
#        30784
#        43169
#        55772
#        70868
#        93076
#        106945
#        121193
#
# Disc length: 1871 seconds
#
# Revision: 0
# Processed by: cddbd v1.5.2PL0 Copyright (c) Steve Scherf et al.
# Submitted via: ExactAudioCopy v0.99pb4
#
DISCID=61074d09
DTITLE=Canned Heat - The Best of Canned Heat
DYEAR=1985
DGENRE=Blues
TTITLE0=Goin' Up the Country
TTITLE1=My Crime
TTITLE2=An Owl Song
TTITLE3=Let's Work Together
TTITLE4=Time Was
TTITLE5=On the Road Again
TTITLE6=Rollin' and Tumblin'
TTITLE7=Help Me
TTITLE8=That's All right Mama
EXTD=
EXTT0=
EXTT1=
EXTT2=
EXTT3=
EXTT4=
EXTT5=
EXTT6=
EXTT7=
EXTT8=
PLAYORDER=
